inDegrees=no
num_controls=7
num_derivatives=13
num_iterations=139
num_multipliers=7
num_parameters=0
num_slacks=7
num_states=26
objective=5.528345
objective_accelerations=0.803175
objective_balance=0.024886
objective_effort=0.248074
objective_height=4.400281
objective_ligament=0.051930
solver_duration=1632.342053
status=Solve_Succeeded
success=true
DataType=double
version=3
OpenSimVersion=4.4-2022-07-23-0e9fedc
endheader
time	/jointset/ground_pelvis/pelvis_tilt/value	/jointset/ground_pelvis/pelvis_tx/value	/jointset/ground_pelvis/pelvis_ty/value	/jointset/hip_l/hip_flexion_l/value	/jointset/hip_l/hip_adduction_l/value	/jointset/hip_l/hip_rotation_l/value	/jointset/back/lumbar_extension/value	/jointset/patellofemoral_l/patellar_flexion_l/value	/jointset/knee_l/knee_flexion_l/value	/jointset/knee_l/knee_adduction_l/value	/jointset/knee_l/knee_rotation_l/value	/jointset/ankle_l/ankle_angle_l/value	/jointset/subtalar_l/subtalar_angle_l/value	/jointset/ground_pelvis/pelvis_tilt/speed	/jointset/ground_pelvis/pelvis_tx/speed	/jointset/ground_pelvis/pelvis_ty/speed	/jointset/hip_l/hip_flexion_l/speed	/jointset/hip_l/hip_adduction_l/speed	/jointset/hip_l/hip_rotation_l/speed	/jointset/back/lumbar_extension/speed	/jointset/patellofemoral_l/patellar_flexion_l/speed	/jointset/knee_l/knee_flexion_l/speed	/jointset/knee_l/knee_adduction_l/speed	/jointset/knee_l/knee_rotation_l/speed	/jointset/ankle_l/ankle_angle_l/speed	/jointset/subtalar_l/subtalar_angle_l/speed	/forceset/tau_hip_flexion_l	/forceset/tau_hip_adduction_l	/forceset/tau_hip_rotation_l	/forceset/tau_knee_flexion_l	/forceset/tau_ankle_angle_l	/forceset/tau_subtalar_angle_l	/forceset/tau_lumbar_extension	lambda_cid13_p0	lambda_cid13_p1	lambda_cid13_p2	lambda_cid13_p3	lambda_cid13_p4	lambda_cid13_p5	lambda_cid14_p0	/jointset/ground_pelvis/pelvis_tilt/accel	/jointset/ground_pelvis/pelvis_tx/accel	/jointset/ground_pelvis/pelvis_ty/accel	/jointset/hip_l/hip_flexion_l/accel	/jointset/hip_l/hip_adduction_l/accel	/jointset/hip_l/hip_rotation_l/accel	/jointset/back/lumbar_extension/accel	/jointset/patellofemoral_l/patellar_flexion_l/accel	/jointset/knee_l/knee_flexion_l/accel	/jointset/knee_l/knee_adduction_l/accel	/jointset/knee_l/knee_rotation_l/accel	/jointset/ankle_l/ankle_angle_l/accel	/jointset/subtalar_l/subtalar_angle_l/accel	gamma_cid13_p0	gamma_cid13_p1	gamma_cid13_p2	gamma_cid13_p3	gamma_cid13_p4	gamma_cid13_p5	gamma_cid14_p0
1.5	-0.5823103061527362	-0.05867883093939731	0.770871515758073	1.304419608778927	-0.3581050449028172	-0.0781639038801927	-0.3563635220936782	0.6420083699556431	0.6420083699557356	-0.07632217296737941	-0.171194924606703	0.01729704767718418	0.06838673494066186	1.111924031011158	0.520945311945235	0.5546894375693906	-3.049296481091752	-0.02609216543319952	-0.5448976438927047	0.5837956624485741	-1.730324914142629	-1.730324914142602	-0.2486064998059765	0.04370446691816617	0.07931626325047535	0.002710857927983786	-0.2154979779552162	0.004112034317376894	0.01261156894009246	-0.0802569480829889	0.04934126464697431	0.01326343480331834	0.1749410650174174	-7.867358760818645	-5.922947790012358	2.422497769708967	-10.32000702423535	-430.9516409178203	-65.62911509928645	-17.45926717884109	1.050959938947943	1.048264151046252	-0.664225671945545	-2.121318121291302	0.3900863044987888	-0.216672602534754	2.177764599453851	-0.7972691813120462	-0.7972691813120485	-0.1674816799303943	0.3998946683551044	0.2544034729212515	0.4743937456773062	1.714983101252129e-07	1.430636064184301e-06	-1.374262713908558e-06	2.154655988043972e-07	6.947707612253688e-07	-4.095344656207176e-07	4.628606749047677e-07
1.51	-0.571138985805546	-0.05341748473845562	0.7763840426048834	1.273822666606896	-0.3583486540764689	-0.08362410921831528	-0.3504190147647065	0.6246670702399273	0.6246670702399796	-0.07882014469049375	-0.1707404369964885	0.01810245123870763	0.06843519137163642	1.122151616057758	0.5312533551910995	0.5476887493049369	-3.069663175506305	-0.02262689662892512	-0.5470595290506727	0.6050202343366375	-1.737703375947212	-1.737703375947191	-0.2509735931169124	0.04722195254326466	0.08177536444250988	0.006986281263380668	-0.2081198592613585	0.003653959338229573	0.01324308524976037	-0.07836572202665336	0.04574590097134389	0.0118248345909988	0.169455915206226	-8.86104737555566	-5.346813047572738	2.584950730628293	-9.48400028896997	-426.3374426982134	-64.99004859316909	-18.10826077619379	0.9804448021239413	1.011543840265851	-0.7369245265458408	-1.929965055001079	0.3249987769841897	-0.2029598509538144	2.081968132117986	-0.673482029990536	-0.6734820299913533	-0.2688947549796968	0.3317025318225609	0.2433464432553794	0.4048603052988876	1.564202921351098e-07	1.63231601749473e-06	-1.245754999347683e-06	2.560339055100987e-07	7.089479879437491e-07	-3.673297435278408e-07	4.718882502800465e-07
1.52	-0.5598710322049767	-0.04805516421927346	0.7818227757444792	1.243034933500019	-0.3585575602403613	-0.08910333608371634	-0.344264828787129	0.607258916436185	0.6072589164361786	-0.08134130166645731	-0.1702499691255352	0.01893278241233375	0.06852655077153046	1.13125068168868	0.5411401755933328	0.5399306961264613	-3.087454668059399	-0.01915156348095554	-0.5487019493496752	0.6257313921701174	-1.743695731750161	-1.743695731750145	-0.2532435503600288	0.05090051905777833	0.08430178567097441	0.01129145171189781	-0.2007417405675099	0.003195884359098946	0.01387460155916178	-0.07647449597030616	0.04215053729572017	0.01038623437870131	0.1639707653950182	-9.856975618255353	-4.771277290008445	2.748632113893672	-8.647847799462969	-421.7595045200667	-64.42945129544783	-18.741607352403	0.8252560558120321	0.9640195823200634	-0.8156986547499181	-1.606277748999539	0.3920991732378441	-0.1127796307416756	2.075081788537094	-0.5200479809851558	-0.5200479809851349	-0.1480544663665044	0.432110846238155	0.2678674802073301	0.4803431683013749	1.412694485556465e-07	1.802996391618256e-06	-1.139304051451202e-06	2.898027656415159e-07	7.246964911888245e-07	-3.199357493068516e-07	4.774271881511579e-07
1.53	-0.5485176928968838	-0.04259623885632401	0.787180211815913	1.212082198106869	-0.3587316371289654	-0.09459711290665519	-0.33790648992017	0.5897977940188042	0.5897977940188105	-0.08388426899195359	-0.1697224566967105	0.01978862422725813	0.06866111972373462	1.139220135605283	0.5505565649931091	0.5314349755527806	-3.102636114610337	-0.01566139673366914	-0.5499827933517341	0.6458217340619048	-1.748288274621532	-1.748288274621527	-0.2553199716529629	0.05461634454435341	0.08686798558193547	0.01562548246835016	-0.1934002214314448	0.002593554263616659	0.01448014433972094	-0.07450330380382945	0.03835166309470769	0.008766450574663196	0.1584299145009909	-10.93758159145793	-4.109488320877717	2.906855678821954	-7.660113041806286	-417.269383022143	-63.72765430088345	-19.35587297876121	0.7532805407494693	0.9172649300323096	-0.884589861927308	-1.405573422457432	0.3276072068582526	-0.124742710465613	1.958813315526339	-0.3928819229652419	-0.3928819229669288	-0.2326006867596315	0.3431901485280862	0.2512593707428157	0.4102069689194971	1.260412277874882e-07	1.940739712855696e-06	-1.056288418135638e-06	3.163472137877563e-07	7.421144757435132e-07	-2.67028153449743e-07	4.792594486740915e-07
